<svg xmlns="http://www.w3.org/2000/svg" version="1.1" xmlns:xlink="http://www.w3.org/1999/xlink" xmlns:svgjs="http://svgjs.dev/svgjs" width="1000" height="1000" viewBox="0 0 1000 1000"><rect width="1000" height="1000" fill="#000000"></rect><g transform="matrix(0.7,0,0,0.7,149.57575757575762,282.1265587044535)"><svg viewBox="0 0 396 247" data-background-color="#ffffff" preserveAspectRatio="xMidYMid meet" height="623" width="1000" xmlns="http://www.w3.org/2000/svg" xmlns:xlink="http://www.w3.org/1999/xlink"><g id="tight-bounds" transform="matrix(1,0,0,1,0.2400000000000091,-0.09999999999999432)"><svg viewBox="0 0 395.52 247.2" height="247.2" width="395.52"><g><svg></svg></g><g><svg viewBox="0 0 395.52 247.2" height="247.2" width="395.52"><g transform="matrix(1,0,0,1,75.54432,88.8247511855833)"><svg viewBox="0 0 244.43135999999998 69.5504976288334" height="69.5504976288334" width="244.43135999999998"><g><svg viewBox="0 0 244.43135999999998 69.5504976288334" height="69.5504976288334" width="244.43135999999998"><g><svg viewBox="0 0 244.43135999999998 69.5504976288334" height="69.5504976288334" width="244.43135999999998"><g><svg viewBox="0 0 244.43135999999998 69.5504976288334" height="69.5504976288334" width="244.43135999999998"><g><svg viewBox="0 0 244.43135999999998 69.5504976288334" height="69.5504976288334" width="244.43135999999998"><g><svg viewBox="0 0 244.43135999999998 69.5504976288334" height="69.5504976288334" width="244.43135999999998"><g transform="matrix(1,0,0,1,0,0)"><svg width="244.43135999999998" viewBox="2.15 -34.3 158.14 45.00000000000001" height="69.5504976288334" data-palette-color="#4a148c"><path d="M30.75 3.2L32.8 7.4Q30.7 8.8 28.25 9.75 25.8 10.7 23 10.7L23 10.7Q19.75 10.7 16.18 8.97 12.6 7.25 9.45 3.75L9.45 3.75 10.55 0.45Q11.15 0.55 11.73 0.63 12.3 0.7 12.85 0.7L12.85 0.7Q15.35 0.7 17.55-0.45 19.75-1.6 21.38-3.8 23-6 23.95-9.22 24.9-12.45 24.9-16.6L24.9-16.6Q24.9-19.15 24.55-21.5 24.2-23.85 23.28-25.68 22.35-27.5 20.73-28.6 19.1-29.7 16.5-29.7L16.5-29.7Q14.3-29.7 12.78-28.68 11.25-27.65 10.28-25.93 9.3-24.2 8.85-21.95 8.4-19.7 8.4-17.2L8.4-17.2Q8.4-12.6 9.53-9.98 10.65-7.35 13.9-6.6L13.9-6.6 13.25-2.35Q10.25-2.55 8.13-3.9 6-5.25 4.67-7.3 3.35-9.35 2.75-11.83 2.15-14.3 2.15-16.75L2.15-16.75Q2.15-20.55 3.08-23.75 4-26.95 5.88-29.3 7.75-31.65 10.58-32.98 13.4-34.3 17.2-34.3L17.2-34.3Q20.95-34.3 23.63-33.1 26.3-31.9 28-29.68 29.7-27.45 30.5-24.28 31.3-21.1 31.3-17.15L31.3-17.15Q31.3-12.5 30.15-8.78 29-5.05 27.08-2.35 25.15 0.35 22.6 2 20.05 3.65 17.25 4.15L17.25 4.15Q18.4 5 19.65 5.38 20.9 5.75 22.2 5.75L22.2 5.75Q24 5.75 26.1 5.1 28.2 4.45 30.75 3.2L30.75 3.2ZM49.85 0L49.85-33.85 69.95-33.85 69.95-29.35 55.8-29.35 55.8-19.9 67.45-19.9 66.7-15.35 55.8-15.35 55.8-4.5 70.7-4.5 70.7 0 49.85 0ZM96.14 0L90.49 0 90.49-16.15Q90.49-18.25 89.74-19.53 88.99-20.8 87.19-20.8L87.19-20.8Q86.04-20.8 84.97-20.23 83.89-19.65 83.04-18.55 82.19-17.45 81.67-15.88 81.14-14.3 81.14-12.35L81.14-12.35 81.14 0 75.44 0 75.44-12.6Q75.44-15.6 75.04-17.63 74.64-19.65 74.19-20.9L74.19-20.9Q73.64-22.35 72.99-23.25L72.99-23.25 77.49-25.05Q77.99-24.5 78.49-23.7L78.49-23.7Q78.89-23 79.29-21.98 79.69-20.95 79.94-19.65L79.94-19.65Q81.24-22.65 83.69-23.98 86.14-25.3 88.84-25.3L88.84-25.3Q92.69-25.3 94.42-22.98 96.14-20.65 96.14-16.7L96.14-16.7 96.14 0ZM100.94-11.85Q100.94-15.2 101.87-17.75 102.79-20.3 104.42-22.03 106.04-23.75 108.24-24.63 110.44-25.5 112.99-25.5L112.99-25.5Q115.24-25.5 116.82-24.95 118.39-24.4 119.39-23.45 120.39-22.5 120.87-21.2 121.34-19.9 121.34-18.4L121.34-18.4Q121.34-16.6 120.34-14.98 119.34-13.35 117.47-12.13 115.59-10.9 112.94-10.18 110.29-9.45 106.99-9.4L106.99-9.4Q107.14-8.25 107.47-7.23 107.79-6.2 108.42-5.43 109.04-4.65 110.04-4.2 111.04-3.75 112.54-3.75L112.54-3.75Q113.64-3.75 114.89-4 116.14-4.25 117.19-4.6L117.19-4.6Q118.44-5 119.64-5.5L119.64-5.5 121.14-1.95Q119.84-1.3 118.34-0.8L118.34-0.8Q117.04-0.35 115.34 0 113.64 0.35 111.74 0.35L111.74 0.35Q108.84 0.35 106.79-0.53 104.74-1.4 103.44-3 102.14-4.6 101.54-6.85 100.94-9.1 100.94-11.85L100.94-11.85ZM112.54-21.6Q110.89-21.6 109.82-20.83 108.74-20.05 108.09-18.82 107.44-17.6 107.17-16.07 106.89-14.55 106.84-13L106.84-13Q109.24-13.1 110.92-13.63 112.59-14.15 113.64-14.93 114.69-15.7 115.17-16.6 115.64-17.5 115.64-18.4L115.64-18.4Q115.64-19.85 114.79-20.73 113.94-21.6 112.54-21.6L112.54-21.6ZM160.29 0L154.64 0 154.64-16.3Q154.64-18.4 153.99-19.63 153.34-20.85 151.74-20.85L151.74-20.85Q150.79-20.85 149.81-20.33 148.84-19.8 148.04-18.8 147.24-17.8 146.74-16.4 146.24-15 146.24-13.3L146.24-13.3 146.24 0 140.59 0 140.59-16.3Q140.59-18.4 139.94-19.63 139.29-20.85 137.69-20.85L137.69-20.85Q136.69-20.85 135.71-20.28 134.74-19.7 133.96-18.6 133.19-17.5 132.71-15.93 132.24-14.35 132.24-12.4L132.24-12.4 132.24 0 126.54 0 126.54-12.6Q126.54-15.6 126.14-17.63 125.74-19.65 125.29-20.9L125.29-20.9Q124.74-22.35 124.09-23.25L124.09-23.25 128.59-25.05Q129.09-24.5 129.59-23.7L129.59-23.7Q129.99-23 130.39-21.98 130.79-20.95 131.04-19.65L131.04-19.65Q132.29-22.65 134.56-23.98 136.84-25.3 139.39-25.3L139.39-25.3Q141.94-25.3 143.36-24 144.79-22.7 145.49-20.65L145.49-20.65Q146.84-23.15 148.96-24.23 151.09-25.3 153.44-25.3L153.44-25.3Q155.39-25.3 156.71-24.68 158.04-24.05 158.81-22.93 159.59-21.8 159.94-20.23 160.29-18.65 160.29-16.7L160.29-16.7 160.29 0Z" opacity="1" transform="matrix(1,0,0,1,0,0)" fill="#ffffff" class="undefined-text-0" data-fill-palette-color="primary" id="text-0"></path></svg></g></svg></g></svg></g></svg></g></svg></g></svg></g></svg></g><g><path d="M0 123.6c0-68.262 55.338-123.6 123.6-123.6 53.147 0 98.459 33.544 115.92 80.615l-3.351 0c-17.31-45.304-61.182-77.479-112.569-77.479-66.53 0-120.464 53.934-120.464 120.464 0 66.53 53.934 120.464 120.464 120.464 51.387 0 95.259-32.175 112.569-77.479h3.351c-17.461 47.071-62.774 80.615-115.92 80.615-68.262 0-123.6-55.338-123.6-123.6z" fill="#4a148c" stroke="transparent" data-fill-palette-color="tertiary"></path></g></svg></g><defs></defs></svg><rect width="395.52" height="247.2" fill="none" stroke="none" visibility="hidden"></rect></g></svg></g></svg>